PathFileType	4	(X/Y/Z)	Kaydara	
DataRate	CameraRate	NumFrames	NumMarkers	Units	OrigDataRate	OrigDataStartFrame	OrigNumFrames	
60.00	60.00	4	74	mm	60.00	449	164	
Frame#	Time	N_lasi			N_rasi			N_rpsi			N_lpsi			N_fneck			N_bneck			N_fhead			N_rhead			N_lhead			N_rshld			N_relbtop			N_relbext			N_relblow			N_rwrext			N_rwrtop			N_rwrlow			N_lshld			N_lelbext			N_lelblow			N_lelbtop			N_lwrext			N_lwrtop			N_lwrlow			N_rtopleg			N_ltopleg			N_rkneefr			N_rkneebk			N_rkneeis			N_lkneefr			N_lknssbk			N_lkneeis			N_rankfr			N_rankis			N_rankbk			N_lankfr			N_lankbk			N_lankis			D_lasi			D_rasi			D_rpsi			D_lpsi			D_fneck			D_bneck			D_fhead			D_rhead			D_lhead			D_rshld			D_relbtop			D_relbext			D_relblow			D_rwrext			D_rwrtop			D_rwrlow			D_lshld			D_lelbext			D_lelblow			D_lelbtop			D_lwrext			D_lwrtop			D_lwrlow			D_rtopleg			D_ltopleg			D_rkneefr			D_rkneebk			D_rkneeis			D_lkneefr			D_lknssbk			D_lkneeis			D_rankfr			D_rankis			D_rankbk			D_lankfr			D_lankbk			D_lankis			
		X1	Y1	Z1	X2	Y2	Z2	X3	Y3	Z3	X4	Y4	Z4	X5	Y5	Z5	X6	Y6	Z6	X7	Y7	Z7	X8	Y8	Z8	X9	Y9	Z9	X10	Y10	Z10	X11	Y11	Z11	X12	Y12	Z12	X13	Y13	Z13	X14	Y14	Z14	X15	Y15	Z15	X16	Y16	Z16	X17	Y17	Z17	X18	Y18	Z18	X19	Y19	Z19	X20	Y20	Z20	X21	Y21	Z21	X22	Y22	Z22	X23	Y23	Z23	X24	Y24	Z24	X25	Y25	Z25	X26	Y26	Z26	X27	Y27	Z27	X28	Y28	Z28	X29	Y29	Z29	X30	Y30	Z30	X31	Y31	Z31	X32	Y32	Z32	X33	Y33	Z33	X34	Y34	Z34	X35	Y35	Z35	X36	Y36	Z36	X37	Y37	Z37	X38	Y38	Z38	X39	Y39	Z39	X40	Y40	Z40	X41	Y41	Z41	X42	Y42	Z42	X43	Y43	Z43	X44	Y44	Z44	X45	Y45	Z45	X46	Y46	Z46	X47	Y47	Z47	X48	Y48	Z48	X49	Y49	Z49	X50	Y50	Z50	X51	Y51	Z51	X52	Y52	Z52	X53	Y53	Z53	X54	Y54	Z54	X55	Y55	Z55	X56	Y56	Z56	X57	Y57	Z57	X58	Y58	Z58	X59	Y59	Z59	X60	Y60	Z60	X61	Y61	Z61	X62	Y62	Z62	X63	Y63	Z63	X64	Y64	Z64	X65	Y65	Z65	X66	Y66	Z66	X67	Y67	Z67	X68	Y68	Z68	X69	Y69	Z69	X70	Y70	Z70	X71	Y71	Z71	X72	Y72	Z72	X73	Y73	Z73	X74	Y74	Z74	

62	7.467	428.98064	1087.84485	678.99818	651.98044	1117.89268	797.61070	559.98741	1165.36118	1070.07530	251.84315	1152.19994	900.49187	405.17109	1524.75433	795.79468	453.25397	1623.59634	894.63196	476.94767	1688.76022	650.50507	520.06836	1728.82584	845.04761	376.40240	1710.48737	787.80647	686.34216	1482.85263	973.76755	763.30399	1194.78683	1102.78503	716.97365	1152.85301	1033.07655	783.86948	1193.00278	1016.85654	851.34521	899.82895	1037.47238	847.15866	897.15263	989.27391	801.13815	895.54237	978.44452	209.89622	1471.04584	819.81598	248.29105	1124.00574	803.93494	190.56644	1145.16739	716.39214	162.53445	1132.41905	797.99904	170.03153	847.69333	695.10376	195.73736	845.63354	654.62738	240.74692	844.97765	682.21565	708.62259	961.00479	945.77347	235.59216	994.34067	837.40845	708.56110	546.06895	764.05960	683.47588	513.97499	902.34917	583.26069	509.16836	791.15395	386.97018	487.96425	906.27533	282.01975	532.95788	971.19148	407.58614	522.44312	1046.28708	810.25719	156.92963	749.05960	738.38516	155.01231	715.97351	734.79507	110.65950	789.55032	336.40911	154.29350	1018.83331	272.24323	164.52559	1070.52841	360.41168	169.38639	1089.28574	-992.80930	1053.00156	516.76350	-1275.54184	1060.34180	555.94898	-1252.99965	1156.17592	351.40224	-1037.19582	1138.72765	323.35403	-1115.87784	1542.87720	550.02655	-1153.78014	1619.19113	438.68839	-1057.51541	1711.61774	652.47704	-1199.60854	1749.63120	542.01569	-1058.82492	1740.06927	477.09484	-1336.38885	1491.93008	542.41131	-1431.14410	1157.42531	546.59004	-1358.20969	1149.34792	555.65147	-1426.25000	1196.22643	624.94587	-1447.59247	953.05008	701.47133	-1419.46838	974.51126	748.09036	-1372.06253	967.68188	720.07202	-944.52995	1509.45175	364.53789	-961.08604	1174.17824	340.47653	-867.67754	1215.85876	323.77174	-923.94699	1189.41444	270.95562	-830.33539	957.66998	312.50986	-821.84326	962.57011	355.84232	-868.64372	960.81413	379.09275	-1344.93515	1008.29254	478.05946	-951.87920	1015.62553	377.59785	-1265.80704	475.66353	553.42102	-1327.66205	495.29545	466.46374	-1208.41576	476.33190	434.77390	-960.55496	496.08284	629.65027	-963.99979	540.44289	515.85632	-1059.88663	499.58862	599.37317	-1303.11127	134.63391	481.75880	-1253.13354	138.20807	431.66862	-1330.53589	139.17506	406.27449	-1052.71896	223.50491	396.96472	-1042.63535	257.75976	333.52394	-1114.73648	249.97770	380.79582 
63	7.483	439.64996	1085.21919	662.99088	663.64159	1116.26678	779.84703	574.39407	1160.38895	1053.23853	265.31040	1148.30078	887.61284	419.14822	1520.65430	783.97148	467.23110	1619.49615	882.80876	486.73470	1685.06989	637.97207	532.61593	1724.65652	831.76964	388.55171	1706.29150	776.31424	701.21567	1477.46201	957.60696	777.80708	1188.46016	1084.89380	731.45866	1146.14517	1015.13992	796.87134	1185.72815	997.90855	861.78223	891.79634	1022.08183	856.62346	888.64120	974.71703	810.43350	887.05315	964.33990	222.79640	1467.48291	810.85991	255.85735	1120.59113	793.77983	197.48348	1142.61513	707.26990	170.11021	1129.88571	789.21074	179.15586	845.14679	683.78891	204.50510	843.87764	643.07060	249.68710	843.56125	670.29297	723.26576	959.24576	925.00557	247.78250	991.23840	823.63472	720.04868	544.73476	739.61517	698.20366	511.89926	877.29950	595.67162	507.09553	767.95517	395.75481	482.40005	892.63428	293.38120	531.25744	959.62059	420.18147	519.67815	1032.14394	815.39291	148.88703	734.84779	742.60925	146.06949	705.57304	739.26155	105.78894	779.71367	338.40012	153.25082	1015.92339	274.67131	166.20880	1068.39676	363.66901	169.61550	1085.79483	-990.51216	1053.99139	526.24302	-1272.47658	1060.57411	569.74842	-1253.35205	1157.14073	365.19951	-1038.24287	1139.55780	333.37372	-1112.01653	1543.69492	561.30310	-1151.66389	1620.06683	450.60448	-1051.13464	1712.45102	662.48779	-1195.37796	1750.66696	554.73446	-1055.89050	1740.93658	487.18037	-1332.23145	1493.84476	558.73203	-1425.87433	1158.53653	571.15852	-1352.67334	1152.03476	579.13628	-1420.11673	1199.80591	648.21648	-1435.15137	959.07051	733.06160	-1406.49033	982.50664	778.34023	-1359.08417	975.25665	750.16525	-944.66461	1510.40421	372.18067	-962.57713	1176.00212	345.79014	-869.98863	1217.44888	325.71953	-928.19183	1191.46446	274.79521	-834.08218	959.12910	311.53465	-823.70789	963.84918	354.35894	-869.51904	962.09259	379.49612	-1343.14011	1008.75099	492.88654	-951.65276	1016.91635	386.23699	-1263.70697	475.14133	557.55665	-1326.46713	496.15002	471.51718	-1207.45064	477.68055	438.35716	-954.33998	501.74900	647.55165	-959.30077	541.57742	532.40086	-1054.11003	503.85189	618.52638	-1302.34650	135.19396	483.01655	-1252.18178	140.12462	433.48469	-1329.97086	140.41648	407.77321	-1050.41214	216.79411	436.31321	-1040.53642	245.54234	368.70922	-1111.01952	240.35654	418.94634 
64	7.500	450.75047	1082.43950	646.96274	675.87982	1114.80209	762.00096	590.01972	1156.12602	1038.04665	279.97313	1144.20113	872.89932	433.51700	1516.95724	771.24077	481.59988	1615.79910	870.07805	496.53763	1681.68289	624.36069	545.92407	1721.70944	818.96828	400.37209	1702.90771	764.89914	716.11946	1472.24472	941.25954	792.38716	1182.06467	1066.17004	746.08917	1139.56718	996.80817	810.08736	1178.78181	979.00261	872.07405	884.17236	1006.54518	866.02707	880.51552	959.88373	819.63364	879.00131	950.42473	235.78516	1464.48090	801.99547	263.54160	1117.52380	783.79654	204.31734	1140.20393	698.95279	177.83892	1127.70210	780.97649	188.21449	842.96227	673.24059	212.98367	842.48512	632.16946	258.61673	842.63542	658.42377	738.40363	957.14790	903.49960	259.91774	986.97281	810.28732	732.44476	542.45781	716.31943	712.32262	511.19865	854.14635	608.80119	505.14091	746.15578	406.24798	475.17380	875.69092	307.18250	528.48652	945.69511	434.14677	515.59834	1015.08682	824.53133	145.36496	718.88145	751.17325	141.66868	693.10959	749.45145	105.04555	769.43092	340.45246	151.34629	1013.19283	277.87096	168.06067	1064.94797	367.67666	169.93731	1081.35666	-987.80602	1054.51233	535.65342	-1268.24028	1061.17996	584.89868	-1253.19000	1157.51762	378.72940	-1038.88710	1139.99947	343.11890	-1106.98486	1544.31381	571.76632	-1149.22195	1620.52826	462.42329	-1044.54521	1712.94724	672.35321	-1190.73463	1751.24481	567.15050	-1052.55363	1741.23886	497.04365	-1327.61459	1495.21408	574.77066	-1419.88297	1159.23653	595.09071	-1346.57394	1154.20067	601.67187	-1413.39539	1203.07655	670.94566	-1421.41434	965.00389	763.58574	-1392.60849	990.59586	807.50732	-1345.66528	983.57780	778.95927	-944.48364	1510.76569	379.67979	-964.10927	1176.84929	351.21655	-872.20863	1218.37257	328.53661	-932.07741	1192.88994	279.23334	-837.62077	959.83391	311.26122	-825.45586	964.48654	353.58727	-870.47440	962.81944	380.55840	-1340.91980	1008.74420	507.33540	-950.88959	1017.81754	395.25852	-1261.90063	474.47380	562.01904	-1325.21729	496.80248	476.80199	-1206.30081	478.73753	442.11460	-948.01048	506.71120	663.40782	-955.42526	541.84067	547.71969	-1047.98386	506.97865	635.96840	-1301.50223	135.57896	484.25621	-1251.18996	140.83441	434.84806	-1329.47723	141.63427	409.14425	-1046.79947	208.53350	476.57795	-1036.96236	232.68436	404.46026	-1105.93681	230.00067	456.76182 
65	7.517	462.20699	1079.49501	631.55418	689.15176	1113.23608	744.14429	606.81885	1152.73254	1023.85437	293.91657	1139.81651	859.02359	447.85179	1514.70123	757.96982	495.93468	1613.54324	856.80710	506.15932	1679.30588	610.51350	559.38274	1719.63699	804.85153	412.55165	1700.63492	752.55234	730.95131	1467.57935	924.47586	806.65604	1176.21140	1047.42271	760.50850	1133.53844	978.43613	823.19176	1172.39174	960.04005	882.44186	877.18773	990.78880	875.41344	873.29308	944.50478	829.05319	871.92383	935.54573	248.85166	1462.29370	793.11111	271.56717	1115.19554	773.64212	211.40528	1138.36586	691.17508	185.40691	1126.04630	773.48686	197.25216	841.36177	663.64960	221.15490	841.77567	622.02370	267.59068	842.53426	646.86882	754.47372	955.62454	882.40707	272.01330	981.20857	796.75774	747.21962	542.82875	693.59634	727.72102	513.20686	833.57590	624.66339	504.56070	725.75294	418.31429	466.52328	855.03136	322.66964	524.14520	928.16971	451.07510	509.54369	993.50937	832.24129	141.88009	707.49344	759.19769	138.23006	681.26167	757.97287	106.78563	761.20338	344.26720	149.88497	1008.66631	282.23745	170.59273	1059.96216	373.15434	170.79557	1075.40726	-984.99069	1054.53430	545.11040	-1266.30348	1059.19594	596.36192	-1252.65526	1157.59483	392.03255	-1038.97705	1140.40550	352.62753	-1102.22984	1544.16931	582.77515	-1146.63895	1620.52948	474.21169	-1037.77832	1713.11554	682.10526	-1185.80887	1751.42090	579.54479	-1048.96019	1741.07727	506.92543	-1322.51389	1496.04996	590.65437	-1413.36334	1159.67613	618.38055	-1339.83231	1156.25992	623.66875	-1405.79025	1205.92407	692.75337	-1406.76971	970.82779	793.04329	-1377.79755	998.49442	835.48599	-1330.91583	991.68846	806.31477	-944.09531	1510.53619	387.33006	-965.79285	1177.14279	356.43791	-874.17198	1218.64304	331.89220	-935.48599	1193.63586	284.25068	-841.07407	960.08774	311.84376	-827.26578	964.53621	353.73726	-870.63515	962.91626	382.43862	-1338.43109	1008.44643	521.34422	-949.89067	1018.23921	404.14017	-1259.88121	473.61153	566.65627	-1323.72925	497.26845	482.20470	-1204.86404	479.55437	446.52714	-942.01828	510.71884	677.57721	-951.93436	541.13544	561.49261	-1041.90941	509.16714	652.38815	-1300.54535	135.89323	485.60200	-1250.12222	141.43843	436.48857	-1328.63113	142.71396	410.53265	-1037.12563	201.73365	513.62335	-1031.89285	219.58622	440.65559	-1098.97156	219.40952	495.17113 
